<svg xmlns="http://www.w3.org/2000/svg" version="1.0" width="400px" height="300px" viewBox="0 0 8000 6000" preserveAspectRatio="xMidYMid meet">
  <style>
    .transition{
      transition: all 0.5s ease 0s;
    }
  </style>
<g id="layer101" stroke="none" fill="none" class="transition">
 <path d="M0 3000 l0 -3000 4000 0 4000 0 0 3000 0 3000 -4000 0 -4000 0 0 -3000z"/>
 </g>
<g id="layer102" fill="#fff" stroke="none" class="transition">
 <path d="M3735 4229 c-431 -62 -816 -391 -959 -819 -47 -143 -61 -233 -61 -405 0 -271 61 -478 204 -698 181 -277 501 -481 825 -526 43 -6 154 -11 247 -11 l171 0 30 30 c26 27 30 36 25 68 -11 64 -30 72 -184 72 -170 0 -303 15 -410 46 -437 127 -743 546 -743 1019 0 474 305 892 745 1020 115 33 254 45 526 45 223 0 226 0 247 23 31 33 30 90 -3 122 l-24 25 -288 -1 c-158 -1 -315 -5 -348 -10z" />
 <path d="M4627 4220 c-33 -26 -43 -70 -23 -108 26 -50 91 -58 131 -17 73 72 -27 188 -108 125z"/>
 <path d="M3757 3900 c-322 -55 -590 -301 -694 -637 -25 -81 -27 -102 -27 -258 0 -157 2 -177 28 -260 82 -268 272 -483 514 -581 99 -40 172 -55 287 -61 108 -5 112 -5 140 19 37 32 40 86 7 121 -20 21 -35 25 -120 30 -123 9 -197 27 -297 76 -135 67 -243 174 -315 312 -58 111 -80 207 -80 344 0 137 22 233 80 343 75 145 178 245 325 317 115 56 217 75 412 75 79 0 152 4 162 10 25 13 45 64 37 95 -3 13 -16 34 -28 45 -20 19 -34 20 -202 19 -100 -1 -202 -5 -229 -9z"/>
 <path d="M4415 3885 c-34 -33 -34 -93 -2 -123 22 -20 33 -22 161 -22 132 0 138 1 161 25 27 26 32 63 13 98 -22 42 -37 46 -176 47 -128 0 -134 -1 -157 -25z"/>
 <path d="M3740 3537 c-36 -12 -86 -34 -111 -49 -105 -62 -203 -189 -242 -313 -30 -98 -30 -242 0 -340 42 -133 146 -262 261 -323 110 -58 138 -62 447 -62 281 0 282 0 303 23 28 29 29 86 3 118 -19 24 -20 24 -303 29 l-284 5 -66 33 c-83 41 -158 120 -189 200 -32 81 -32 213 0 294 31 79 106 160 187 199 51 25 81 33 153 38 98 7 125 21 136 71 7 32 -15 84 -40 94 -40 15 -191 5 -255 -17z"/>
 <path d="M4230 3535 c-34 -37 -33 -90 4 -121 27 -24 30 -24 249 -24 233 1 242 2 265 47 19 35 14 72 -13 98 l-24 25 -229 0 -229 0 -23 -25z"/>
 <path d="M4627 2600 c-33 -26 -43 -70 -23 -108 26 -50 91 -58 131 -17 73 72 -27 189 -108 125z"/>
 <path d="M4230 2245 c-34 -37 -33 -90 4 -121 27 -24 30 -24 246 -24 120 0 226 3 235 6 21 8 45 56 45 89 0 14 -11 37 -25 50 l-24 25 -229 0 -229 0 -23 -25z"/>
 <path d="M4412 1917 c-31 -33 -30 -90 3 -122 23 -24 30 -25 149 -25 70 0 136 5 149 11 50 23 62 95 22 134 -23 24 -29 25 -163 25 -132 0 -140 -1 -160 -23z"/>
 </g>
<g id="layer103" fill="#fff" stroke="none" class="transition">
 <path d="M3706 4223 c-3 -3 -16 -7 -28 -9 -73 -10 -196 -51 -284 -93 -286 -140 -516 -404 -618 -711 -47 -143 -61 -233 -61 -405 0 -271 61 -478 204 -698 181 -277 501 -481 825 -526 43 -6 154 -11 247 -11 l171 0 30 30 c26 27 30 36 25 68 -11 64 -30 72 -184 72 -170 0 -303 15 -410 46 -437 127 -743 546 -743 1019 0 569 430 1033 984 1060 37 2 70 5 71 7 2 2 -37 37 -87 78 -82 66 -126 89 -142 73z"/>
 <path d="M3757 3900 c-322 -55 -590 -301 -694 -637 -25 -81 -27 -102 -27 -258 0 -157 2 -177 28 -260 82 -268 272 -483 514 -581 99 -40 172 -55 287 -61 108 -5 112 -5 140 19 37 32 40 86 7 121 -20 21 -35 25 -120 30 -123 9 -197 27 -297 76 -135 67 -243 174 -315 312 -58 111 -80 207 -80 344 0 137 22 233 80 343 75 145 178 245 325 317 115 56 217 75 414 75 80 0 152 4 159 9 20 12 38 53 34 78 -2 12 -19 36 -38 53 l-35 30 -167 -1 c-92 -1 -188 -5 -215 -9z"/>
 <path d="M3740 3537 c-36 -12 -86 -34 -111 -49 -105 -62 -203 -189 -242 -313 -30 -98 -30 -242 0 -340 42 -133 146 -262 261 -323 110 -58 138 -62 447 -62 281 0 282 0 303 23 28 29 29 86 3 118 -19 24 -20 24 -303 29 l-284 5 -66 33 c-83 41 -158 120 -189 200 -32 81 -32 213 0 294 31 79 106 160 187 199 51 25 81 33 153 38 98 7 125 21 136 71 7 32 -15 84 -40 94 -40 15 -191 5 -255 -17z"/>
 <path d="M4230 3535 c-34 -37 -33 -90 4 -121 27 -24 31 -24 230 -24 190 0 272 9 264 30 -2 4 -40 38 -84 74 l-81 66 -155 0 c-152 0 -155 0 -178 -25z"/>
 <path d="M4627 2600 c-33 -26 -43 -70 -23 -108 26 -50 91 -58 131 -17 73 72 -27 189 -108 125z"/>
 <path d="M4230 2245 c-34 -37 -33 -90 4 -121 27 -24 30 -24 246 -24 120 0 226 3 235 6 21 8 45 56 45 89 0 14 -11 37 -25 50 l-24 25 -229 0 -229 0 -23 -25z"/>
 <path d="M4412 1917 c-31 -33 -30 -90 3 -122 23 -24 30 -25 149 -25 70 0 136 5 149 11 50 23 62 95 22 134 -23 24 -29 25 -163 25 -132 0 -140 -1 -160 -23z"/>
 </g>
<g id="layer104" fill="#fff" stroke="none" class="transition">
 <path d="M2836 3547 c-82 -147 -121 -321 -121 -542 0 -271 61 -478 204 -698 181 -277 501 -481 825 -526 43 -6 154 -11 247 -11 l171 0 30 30 c26 27 30 36 25 68 -11 64 -30 72 -184 72 -170 0 -303 15 -410 46 -573 166 -889 814 -677 1391 52 142 52 133 -3 179 -72 60 -68 60 -107 -9z"/>
 <path d="M3112 3388 c-7 -7 -12 -20 -12 -29 0 -10 -4 -20 -9 -23 -5 -3 -19 -43 -32 -88 -21 -73 -24 -103 -23 -248 0 -150 3 -173 28 -255 82 -268 272 -483 514 -581 99 -40 172 -55 287 -61 108 -5 112 -5 140 19 37 32 40 86 7 121 -20 21 -35 25 -120 30 -123 9 -197 27 -297 76 -182 90 -324 266 -375 467 -27 105 -27 273 0 375 10 41 22 83 24 94 4 15 -8 31 -53 68 -33 26 -61 47 -63 47 -2 0 -9 -5 -16 -12z"/>
 <path d="M3386 3172 c-14 -23 -28 -153 -22 -212 22 -237 177 -431 397 -494 45 -13 98 -16 288 -14 l232 3 -99 81 -98 82 -134 4 c-121 3 -141 6 -192 30 -67 31 -140 96 -173 152 -33 57 -58 151 -57 216 0 55 0 55 -55 100 -68 55 -80 62 -87 52z"/>
 <path d="M4230 2245 c-34 -37 -33 -90 4 -121 27 -24 30 -24 240 -24 117 0 215 3 219 6 3 4 -37 42 -91 85 l-97 79 -126 0 c-121 0 -126 -1 -149 -25z"/>
 <path d="M4412 1917 c-31 -33 -30 -90 3 -122 23 -24 30 -25 149 -25 70 0 136 5 149 11 50 23 62 95 22 134 -23 24 -29 25 -163 25 -132 0 -140 -1 -160 -23z"/>
 </g>

</svg>
